<mxfile host="app.diagrams.net" modified="2020-12-07T09:35:14.115Z" agent="5.0 (Macintosh; Intel Mac OS X 11_0_1) AppleWebKit/537.36 (KHTML, like Gecko) Chrome/87.0.4280.88 Safari/537.36" etag="l91LtmguemaiTtCuOLjs" version="13.10.9" type="github">
  <diagram id="6a731a19-8d31-9384-78a2-239565b7b9f0" name="Page-1">
    <mxGraphModel dx="1395" dy="727" grid="1" gridSize="10" guides="1" tooltips="1" connect="1" arrows="1" fold="1" page="1" pageScale="1" pageWidth="1169" pageHeight="827" background="#D5E8D4" math="0" shadow="0">
      <root>
        <mxCell id="0" />
        <mxCell id="1" parent="0" />
        <mxCell id="1350" value="&lt;div&gt;E6&lt;/div&gt;&lt;div&gt;CyberSec&lt;/div&gt;" style="ellipse;whiteSpace=wrap;html=1;shadow=0;fontFamily=Helvetica;fontSize=20;fontColor=#FFFFFF;align=center;strokeWidth=3;fillColor=#1699D3;strokeColor=none;" parent="1" vertex="1">
          <mxGeometry x="325" y="320" width="120" height="120" as="geometry" />
        </mxCell>
        <mxCell id="1351" value="&lt;div&gt;E3&lt;/div&gt;&lt;div&gt;Éco, droit, mana pour l&#39;info&lt;/div&gt;" style="ellipse;whiteSpace=wrap;html=1;shadow=0;fontFamily=Helvetica;fontSize=20;fontColor=#FFFFFF;align=center;strokeWidth=3;fillColor=#F08705;strokeColor=none;gradientColor=none;" parent="1" vertex="1">
          <mxGeometry x="1095" y="320" width="120" height="120" as="geometry" />
        </mxCell>
        <mxCell id="1352" value="&lt;div&gt;E11&lt;/div&gt;&lt;div&gt;Culture générale et expression&lt;/div&gt;" style="ellipse;whiteSpace=wrap;html=1;shadow=0;fontFamily=Helvetica;fontSize=20;fontColor=#FFFFFF;align=center;strokeWidth=3;fillColor=#E85642;strokeColor=none;" parent="1" vertex="1">
          <mxGeometry x="1865" y="320" width="120" height="120" as="geometry" />
        </mxCell>
        <mxCell id="ftqSrM_YYSdM8JI-R3oG-1557" style="edgeStyle=orthogonalEdgeStyle;rounded=0;orthogonalLoop=1;jettySize=auto;html=1;fontFamily=Lucida Console;fontColor=#FFFFFF;align=center;" parent="1" source="1353" edge="1">
          <mxGeometry relative="1" as="geometry">
            <mxPoint x="2830" y="380" as="targetPoint" />
          </mxGeometry>
        </mxCell>
        <mxCell id="1353" value="&lt;div&gt;E12&lt;br&gt;&lt;/div&gt;&lt;div&gt;Anglais&lt;/div&gt;" style="ellipse;whiteSpace=wrap;html=1;shadow=0;fontFamily=Helvetica;fontSize=20;fontColor=#FFFFFF;align=center;strokeWidth=3;strokeColor=none;fillColor=#1699D3;" parent="1" vertex="1">
          <mxGeometry x="2635" y="320" width="120" height="120" as="geometry" />
        </mxCell>
        <mxCell id="1354" value="&lt;div&gt;E2&lt;br&gt;&lt;/div&gt;&lt;div&gt;Maths&lt;/div&gt;&lt;div&gt;pour l&#39;info&lt;br&gt;&lt;/div&gt;" style="ellipse;whiteSpace=wrap;html=1;shadow=0;fontFamily=Helvetica;fontSize=20;fontColor=#FFFFFF;align=center;strokeWidth=3;fillColor=#736ca8;strokeColor=none;" parent="1" vertex="1">
          <mxGeometry x="325" y="870" width="120" height="120" as="geometry" />
        </mxCell>
        <mxCell id="H5KNrPsj4nIKbCWCYMqj-1553" style="edgeStyle=orthogonalEdgeStyle;rounded=0;orthogonalLoop=1;jettySize=auto;html=1;entryX=1;entryY=0.5;entryDx=0;entryDy=0;" edge="1" parent="1" source="1355" target="1354">
          <mxGeometry relative="1" as="geometry" />
        </mxCell>
        <mxCell id="1355" value="&lt;div&gt;EF2&lt;/div&gt;&lt;div&gt;Math approfiondies&lt;/div&gt;" style="ellipse;whiteSpace=wrap;html=1;shadow=0;fontFamily=Helvetica;fontSize=20;fontColor=#FFFFFF;align=center;strokeWidth=3;fillColor=#F08705;strokeColor=none;" parent="1" vertex="1">
          <mxGeometry x="510" y="870" width="120" height="120" as="geometry" />
        </mxCell>
        <mxCell id="1356" value="&lt;div&gt;E5&lt;br&gt;&lt;/div&gt;&lt;div&gt;Conception et dev d&#39;applis&lt;/div&gt;" style="ellipse;whiteSpace=wrap;html=1;shadow=0;fontFamily=Helvetica;fontSize=20;fontColor=#FFFFFF;align=center;strokeWidth=3;fillColor=#E85642;strokeColor=none;" parent="1" vertex="1">
          <mxGeometry x="1865" y="870" width="120" height="120" as="geometry" />
        </mxCell>
        <mxCell id="1359" style="endArrow=none;strokeWidth=6;strokeColor=#1699D3;html=1;noEdgeStyle=1;edgeStyle=orthogonalEdgeStyle;" parent="1" source="1515" target="1350" edge="1">
          <mxGeometry relative="1" as="geometry">
            <Array as="points">
              <mxPoint x="1540" y="295" mark="1" />
              <mxPoint x="1540" y="315" mark="513" />
              <mxPoint x="385" y="315" mark="514" />
              <mxPoint x="385" y="320" mark="2" />
            </Array>
          </mxGeometry>
        </mxCell>
        <mxCell id="1360" style="endArrow=none;strokeWidth=6;strokeColor=#f08705;html=1;noEdgeStyle=1;edgeStyle=orthogonalEdgeStyle;" parent="1" source="1515" target="1351" edge="1">
          <mxGeometry relative="1" as="geometry">
            <Array as="points">
              <mxPoint x="1540" y="295" mark="1" />
              <mxPoint x="1540" y="315" mark="513" />
              <mxPoint x="1155" y="315" mark="516" />
              <mxPoint x="1155" y="320" mark="4" />
            </Array>
          </mxGeometry>
        </mxCell>
        <mxCell id="1361" style="endArrow=none;strokeWidth=6;strokeColor=#E85642;html=1;noEdgeStyle=1;edgeStyle=orthogonalEdgeStyle;" parent="1" source="1515" target="1352" edge="1">
          <mxGeometry relative="1" as="geometry">
            <Array as="points">
              <mxPoint x="1540" y="295" mark="1" />
              <mxPoint x="1540" y="315" mark="513" />
              <mxPoint x="1925" y="315" mark="520" />
              <mxPoint x="1925" y="320" mark="8" />
            </Array>
          </mxGeometry>
        </mxCell>
        <mxCell id="1362" style="endArrow=none;strokeWidth=6;strokeColor=#1699D3;html=1;noEdgeStyle=1;edgeStyle=orthogonalEdgeStyle;" parent="1" source="1515" target="1353" edge="1">
          <mxGeometry relative="1" as="geometry">
            <Array as="points">
              <mxPoint x="1540" y="295" mark="1" />
              <mxPoint x="1540" y="315" mark="513" />
              <mxPoint x="1925" y="315" mark="520" />
              <mxPoint x="2695" y="315" mark="528" />
              <mxPoint x="2695" y="320" mark="16" />
            </Array>
          </mxGeometry>
        </mxCell>
        <mxCell id="1363" style="endArrow=none;strokeWidth=6;strokeColor=#736CA8;html=1;noEdgeStyle=1;edgeStyle=orthogonalEdgeStyle;" parent="1" source="1515" target="1516" edge="1">
          <mxGeometry relative="1" as="geometry">
            <Array as="points">
              <mxPoint x="1540" y="295" mark="1" />
              <mxPoint x="1540" y="315" mark="513" />
              <mxPoint x="1540" y="865" mark="1025" />
              <mxPoint x="1925" y="865" mark="1152" />
              <mxPoint x="2695" y="865" mark="1280" />
              <mxPoint x="2695" y="870" mark="256" />
            </Array>
          </mxGeometry>
        </mxCell>
        <mxCell id="1364" style="endArrow=none;strokeWidth=6;strokeColor=#736ca8;html=1;noEdgeStyle=1;edgeStyle=orthogonalEdgeStyle;" parent="1" source="1515" target="1354" edge="1">
          <mxGeometry relative="1" as="geometry">
            <Array as="points">
              <mxPoint x="1540" y="295" mark="1" />
              <mxPoint x="1540" y="315" mark="513" />
              <mxPoint x="1540" y="865" mark="1025" />
              <mxPoint x="385" y="865" mark="1056" />
              <mxPoint x="385" y="870" mark="32" />
            </Array>
          </mxGeometry>
        </mxCell>
        <mxCell id="1366" value="" style="edgeStyle=orthogonalEdgeStyle;endArrow=none;strokeWidth=6;strokeColor=#E85642;html=1;noEdgeStyle=1;" parent="1" source="1515" target="1356" edge="1">
          <mxGeometry x="181" y="226.5" width="100" height="100" as="geometry">
            <mxPoint x="181" y="326.5" as="sourcePoint" />
            <mxPoint x="281" y="226.5" as="targetPoint" />
            <Array as="points">
              <mxPoint x="1540" y="295" mark="1" />
              <mxPoint x="1540" y="315" mark="513" />
              <mxPoint x="1540" y="865" mark="1025" />
              <mxPoint x="1925" y="865" mark="1152" />
              <mxPoint x="1925" y="870" mark="128" />
            </Array>
          </mxGeometry>
        </mxCell>
        <mxCell id="1378" value="" style="edgeStyle=orthogonalEdgeStyle;endArrow=none;strokeWidth=3;strokeColor=#64BBE2;html=1;noEdgeStyle=1;" parent="1" source="1350" target="1367" edge="1">
          <mxGeometry x="-221.5" y="56.5" width="100" height="100" as="geometry">
            <mxPoint x="-221.5" y="156.5" as="sourcePoint" />
            <mxPoint x="-121.5" y="56.5" as="targetPoint" />
            <Array as="points">
              <mxPoint x="385" y="440" mark="1" />
              <mxPoint x="385" y="460" mark="4097" />
              <mxPoint x="285" y="460" mark="4100" />
              <mxPoint x="285" y="465" mark="4" />
            </Array>
          </mxGeometry>
        </mxCell>
        <mxCell id="1379" value="" style="edgeStyle=orthogonalEdgeStyle;endArrow=none;strokeWidth=3;strokeColor=#64BBE2;html=1;noEdgeStyle=1;" parent="1" source="1350" target="1358" edge="1">
          <mxGeometry x="-221.5" y="56.5" width="100" height="100" as="geometry">
            <mxPoint x="-221.5" y="156.5" as="sourcePoint" />
            <mxPoint x="-121.5" y="56.5" as="targetPoint" />
            <Array as="points">
              <mxPoint x="385" y="440" mark="1" />
              <mxPoint x="385" y="460" mark="4097" />
              <mxPoint x="100" y="460" mark="4098" />
              <mxPoint x="100" y="465" mark="2" />
            </Array>
          </mxGeometry>
        </mxCell>
        <mxCell id="1380" value="" style="edgeStyle=orthogonalEdgeStyle;endArrow=none;strokeWidth=3;strokeColor=#64BBE2;html=1;noEdgeStyle=1;" parent="1" source="1350" target="1368" edge="1">
          <mxGeometry x="-221.5" y="56.5" width="100" height="100" as="geometry">
            <mxPoint x="-221.5" y="156.5" as="sourcePoint" />
            <mxPoint x="-121.5" y="56.5" as="targetPoint" />
            <Array as="points">
              <mxPoint x="385" y="440" mark="1" />
              <mxPoint x="385" y="460" mark="4097" />
              <mxPoint x="485" y="460" mark="4104" />
              <mxPoint x="485" y="465" mark="8" />
            </Array>
          </mxGeometry>
        </mxCell>
        <mxCell id="1381" value="" style="edgeStyle=orthogonalEdgeStyle;endArrow=none;strokeWidth=3;strokeColor=#64BBE2;html=1;noEdgeStyle=1;" parent="1" source="1350" target="1369" edge="1">
          <mxGeometry x="-221.5" y="56.5" width="100" height="100" as="geometry">
            <mxPoint x="-221.5" y="156.5" as="sourcePoint" />
            <mxPoint x="-121.5" y="56.5" as="targetPoint" />
            <Array as="points">
              <mxPoint x="385" y="440" mark="1" />
              <mxPoint x="385" y="460" mark="4097" />
              <mxPoint x="485" y="460" mark="4104" />
              <mxPoint x="670" y="460" mark="4112" />
              <mxPoint x="670" y="465" mark="16" />
            </Array>
          </mxGeometry>
        </mxCell>
        <mxCell id="1382" value="" style="edgeStyle=orthogonalEdgeStyle;endArrow=none;strokeWidth=3;strokeColor=#64BBE2;html=1;noEdgeStyle=1;" parent="1" source="1350" target="1370" edge="1">
          <mxGeometry x="-221.5" y="56.5" width="100" height="100" as="geometry">
            <mxPoint x="-221.5" y="156.5" as="sourcePoint" />
            <mxPoint x="-121.5" y="56.5" as="targetPoint" />
            <Array as="points">
              <mxPoint x="385" y="440" mark="1" />
              <mxPoint x="385" y="460" mark="4097" />
              <mxPoint x="385" y="595" mark="8193" />
              <mxPoint x="100" y="595" mark="8224" />
              <mxPoint x="100" y="600" mark="32" />
            </Array>
          </mxGeometry>
        </mxCell>
        <mxCell id="1399" value="" style="edgeStyle=orthogonalEdgeStyle;endArrow=none;strokeWidth=3;strokeColor=#F5AF58;html=1;noEdgeStyle=1;" parent="1" source="1351" target="1357" edge="1">
          <mxGeometry x="3.5" y="21.5" width="100" height="100" as="geometry">
            <mxPoint x="3.5" y="121.5" as="sourcePoint" />
            <mxPoint x="103.5" y="21.5" as="targetPoint" />
            <Array as="points">
              <mxPoint x="1155" y="440" mark="1" />
              <mxPoint x="1155" y="460" mark="8193" />
              <mxPoint x="870" y="460" mark="8194" />
              <mxPoint x="870" y="465" mark="2" />
            </Array>
          </mxGeometry>
        </mxCell>
        <mxCell id="1400" value="" style="edgeStyle=orthogonalEdgeStyle;endArrow=none;strokeWidth=3;strokeColor=#F5AF58;html=1;noEdgeStyle=1;" parent="1" source="1351" target="1388" edge="1">
          <mxGeometry x="3.5" y="21.5" width="100" height="100" as="geometry">
            <mxPoint x="3.5" y="121.5" as="sourcePoint" />
            <mxPoint x="103.5" y="21.5" as="targetPoint" />
            <Array as="points">
              <mxPoint x="1155" y="440" mark="1" />
              <mxPoint x="1155" y="460" mark="8193" />
              <mxPoint x="1055" y="460" mark="8196" />
              <mxPoint x="1055" y="465" mark="4" />
            </Array>
          </mxGeometry>
        </mxCell>
        <mxCell id="1401" value="" style="edgeStyle=orthogonalEdgeStyle;endArrow=none;strokeWidth=3;strokeColor=#F5AF58;html=1;noEdgeStyle=1;" parent="1" source="1351" target="1389" edge="1">
          <mxGeometry x="3.5" y="21.5" width="100" height="100" as="geometry">
            <mxPoint x="3.5" y="121.5" as="sourcePoint" />
            <mxPoint x="103.5" y="21.5" as="targetPoint" />
            <Array as="points">
              <mxPoint x="1155" y="440" mark="1" />
              <mxPoint x="1155" y="460" mark="8193" />
              <mxPoint x="1255" y="460" mark="8200" />
              <mxPoint x="1255" y="465" mark="8" />
            </Array>
          </mxGeometry>
        </mxCell>
        <mxCell id="1402" value="" style="edgeStyle=orthogonalEdgeStyle;endArrow=none;strokeWidth=3;strokeColor=#F5AF58;html=1;noEdgeStyle=1;" parent="1" source="1351" target="1390" edge="1">
          <mxGeometry x="3.5" y="21.5" width="100" height="100" as="geometry">
            <mxPoint x="3.5" y="121.5" as="sourcePoint" />
            <mxPoint x="103.5" y="21.5" as="targetPoint" />
            <Array as="points">
              <mxPoint x="1155" y="440" mark="1" />
              <mxPoint x="1155" y="460" mark="8193" />
              <mxPoint x="1255" y="460" mark="8200" />
              <mxPoint x="1440" y="460" mark="8208" />
              <mxPoint x="1440" y="465" mark="16" />
            </Array>
          </mxGeometry>
        </mxCell>
        <mxCell id="1403" value="" style="edgeStyle=orthogonalEdgeStyle;endArrow=none;strokeWidth=3;strokeColor=#F5AF58;html=1;noEdgeStyle=1;" parent="1" source="1351" target="1391" edge="1">
          <mxGeometry x="3.5" y="21.5" width="100" height="100" as="geometry">
            <mxPoint x="3.5" y="121.5" as="sourcePoint" />
            <mxPoint x="103.5" y="21.5" as="targetPoint" />
            <Array as="points">
              <mxPoint x="1155" y="440" mark="1" />
              <mxPoint x="1155" y="460" mark="8193" />
              <mxPoint x="1155" y="595" mark="16385" />
              <mxPoint x="870" y="595" mark="16416" />
              <mxPoint x="870" y="600" mark="32" />
            </Array>
          </mxGeometry>
        </mxCell>
        <mxCell id="1423" value="" style="edgeStyle=orthogonalEdgeStyle;endArrow=none;strokeWidth=3;strokeColor=#F08E81;html=1;noEdgeStyle=1;" parent="1" source="1352" target="1411" edge="1">
          <mxGeometry x="31" y="106.5" width="100" height="100" as="geometry">
            <mxPoint x="31" y="206.5" as="sourcePoint" />
            <mxPoint x="131" y="106.5" as="targetPoint" />
            <Array as="points">
              <mxPoint x="1925" y="440" mark="1" />
              <mxPoint x="1925" y="460" mark="8193" />
              <mxPoint x="1640" y="460" mark="8194" />
              <mxPoint x="1640" y="465" mark="2" />
            </Array>
          </mxGeometry>
        </mxCell>
        <mxCell id="1424" value="" style="edgeStyle=orthogonalEdgeStyle;endArrow=none;strokeWidth=3;strokeColor=#F08E81;html=1;noEdgeStyle=1;" parent="1" source="1352" target="1413" edge="1">
          <mxGeometry x="31" y="106.5" width="100" height="100" as="geometry">
            <mxPoint x="31" y="206.5" as="sourcePoint" />
            <mxPoint x="131" y="106.5" as="targetPoint" />
            <Array as="points">
              <mxPoint x="1925" y="440" mark="1" />
              <mxPoint x="1925" y="460" mark="8193" />
              <mxPoint x="2025" y="460" mark="8200" />
              <mxPoint x="2025" y="465" mark="8" />
            </Array>
          </mxGeometry>
        </mxCell>
        <mxCell id="1425" value="" style="edgeStyle=orthogonalEdgeStyle;endArrow=none;strokeWidth=3;strokeColor=#F08E81;html=1;noEdgeStyle=1;" parent="1" source="1352" target="1414" edge="1">
          <mxGeometry x="31" y="106.5" width="100" height="100" as="geometry">
            <mxPoint x="31" y="206.5" as="sourcePoint" />
            <mxPoint x="131" y="106.5" as="targetPoint" />
            <Array as="points">
              <mxPoint x="1925" y="440" mark="1" />
              <mxPoint x="1925" y="460" mark="8193" />
              <mxPoint x="2025" y="460" mark="8200" />
              <mxPoint x="2210" y="460" mark="8208" />
              <mxPoint x="2210" y="465" mark="16" />
            </Array>
          </mxGeometry>
        </mxCell>
        <mxCell id="1426" value="" style="edgeStyle=orthogonalEdgeStyle;endArrow=none;strokeWidth=3;strokeColor=#F08E81;html=1;noEdgeStyle=1;" parent="1" source="1352" target="1415" edge="1">
          <mxGeometry x="31" y="106.5" width="100" height="100" as="geometry">
            <mxPoint x="31" y="206.5" as="sourcePoint" />
            <mxPoint x="131" y="106.5" as="targetPoint" />
            <Array as="points">
              <mxPoint x="1925" y="440" mark="1" />
              <mxPoint x="1925" y="460" mark="8193" />
              <mxPoint x="1925" y="595" mark="16385" />
              <mxPoint x="1640" y="595" mark="16416" />
              <mxPoint x="1640" y="600" mark="32" />
            </Array>
          </mxGeometry>
        </mxCell>
        <mxCell id="1427" value="" style="edgeStyle=orthogonalEdgeStyle;endArrow=none;strokeWidth=3;strokeColor=#F08E81;html=1;noEdgeStyle=1;" parent="1" source="1352" target="1416" edge="1">
          <mxGeometry x="31" y="106.5" width="100" height="100" as="geometry">
            <mxPoint x="31" y="206.5" as="sourcePoint" />
            <mxPoint x="131" y="106.5" as="targetPoint" />
            <Array as="points">
              <mxPoint x="1925" y="440" mark="1" />
              <mxPoint x="1925" y="460" mark="8193" />
              <mxPoint x="1925" y="595" mark="16385" />
              <mxPoint x="1825" y="595" mark="16448" />
              <mxPoint x="1825" y="600" mark="64" />
            </Array>
          </mxGeometry>
        </mxCell>
        <mxCell id="1428" value="" style="edgeStyle=orthogonalEdgeStyle;endArrow=none;strokeWidth=3;strokeColor=#F08E81;html=1;noEdgeStyle=1;" parent="1" source="1352" target="1417" edge="1">
          <mxGeometry x="31" y="106.5" width="100" height="100" as="geometry">
            <mxPoint x="31" y="206.5" as="sourcePoint" />
            <mxPoint x="131" y="106.5" as="targetPoint" />
            <Array as="points">
              <mxPoint x="1925" y="440" mark="1" />
              <mxPoint x="1925" y="460" mark="8193" />
              <mxPoint x="1925" y="595" mark="16385" />
              <mxPoint x="2025" y="595" mark="16512" />
              <mxPoint x="2025" y="600" mark="128" />
            </Array>
          </mxGeometry>
        </mxCell>
        <mxCell id="1431" value="" style="edgeStyle=orthogonalEdgeStyle;endArrow=none;strokeWidth=3;strokeColor=#F08E81;html=1;noEdgeStyle=1;" parent="1" source="1352" target="1412" edge="1">
          <mxGeometry x="31" y="106.5" width="100" height="100" as="geometry">
            <mxPoint x="31" y="206.5" as="sourcePoint" />
            <mxPoint x="131" y="106.5" as="targetPoint" />
            <Array as="points">
              <mxPoint x="1925" y="440" mark="1" />
              <mxPoint x="1925" y="460" mark="8193" />
              <mxPoint x="1825" y="460" mark="8196" />
              <mxPoint x="1825" y="465" mark="4" />
            </Array>
          </mxGeometry>
        </mxCell>
        <mxCell id="1446" value="" style="edgeStyle=orthogonalEdgeStyle;endArrow=none;strokeWidth=3;strokeColor=#64BBE2;html=1;noEdgeStyle=1;" parent="1" source="1353" target="1435" edge="1">
          <mxGeometry x="-24" y="196.5" width="100" height="100" as="geometry">
            <mxPoint x="-24" y="296.5" as="sourcePoint" />
            <mxPoint x="76" y="196.5" as="targetPoint" />
            <Array as="points">
              <mxPoint x="2695" y="440" mark="1" />
              <mxPoint x="2695" y="460" mark="4097" />
              <mxPoint x="2410" y="460" mark="4098" />
              <mxPoint x="2410" y="465" mark="2" />
            </Array>
          </mxGeometry>
        </mxCell>
        <mxCell id="1447" value="" style="edgeStyle=orthogonalEdgeStyle;endArrow=none;strokeWidth=3;strokeColor=#64BBE2;html=1;noEdgeStyle=1;" parent="1" source="1353" target="1436" edge="1">
          <mxGeometry x="-24" y="196.5" width="100" height="100" as="geometry">
            <mxPoint x="-24" y="296.5" as="sourcePoint" />
            <mxPoint x="76" y="196.5" as="targetPoint" />
            <Array as="points">
              <mxPoint x="2695" y="440" mark="1" />
              <mxPoint x="2695" y="460" mark="4097" />
              <mxPoint x="2595" y="460" mark="4100" />
              <mxPoint x="2595" y="465" mark="4" />
            </Array>
          </mxGeometry>
        </mxCell>
        <mxCell id="1448" value="" style="edgeStyle=orthogonalEdgeStyle;endArrow=none;strokeWidth=3;strokeColor=#64BBE2;html=1;noEdgeStyle=1;" parent="1" source="1353" target="1437" edge="1">
          <mxGeometry x="-24" y="196.5" width="100" height="100" as="geometry">
            <mxPoint x="-24" y="296.5" as="sourcePoint" />
            <mxPoint x="76" y="196.5" as="targetPoint" />
            <Array as="points">
              <mxPoint x="2695" y="440" mark="1" />
              <mxPoint x="2695" y="460" mark="4097" />
              <mxPoint x="2795" y="460" mark="4104" />
              <mxPoint x="2795" y="465" mark="8" />
            </Array>
          </mxGeometry>
        </mxCell>
        <mxCell id="1449" value="" style="edgeStyle=orthogonalEdgeStyle;endArrow=none;strokeWidth=3;strokeColor=#64BBE2;html=1;noEdgeStyle=1;" parent="1" source="1353" target="1438" edge="1">
          <mxGeometry x="-24" y="196.5" width="100" height="100" as="geometry">
            <mxPoint x="-24" y="296.5" as="sourcePoint" />
            <mxPoint x="76" y="196.5" as="targetPoint" />
            <Array as="points">
              <mxPoint x="2695" y="440" mark="1" />
              <mxPoint x="2695" y="460" mark="4097" />
              <mxPoint x="2795" y="460" mark="4104" />
              <mxPoint x="2980" y="460" mark="4112" />
              <mxPoint x="2980" y="465" mark="16" />
            </Array>
          </mxGeometry>
        </mxCell>
        <mxCell id="1450" value="" style="edgeStyle=orthogonalEdgeStyle;endArrow=none;strokeWidth=3;strokeColor=#64BBE2;html=1;noEdgeStyle=1;" parent="1" source="1353" target="1439" edge="1">
          <mxGeometry x="-24" y="196.5" width="100" height="100" as="geometry">
            <mxPoint x="-24" y="296.5" as="sourcePoint" />
            <mxPoint x="76" y="196.5" as="targetPoint" />
            <Array as="points">
              <mxPoint x="2695" y="440" mark="1" />
              <mxPoint x="2695" y="460" mark="4097" />
              <mxPoint x="2695" y="595" mark="8193" />
              <mxPoint x="2410" y="595" mark="8224" />
              <mxPoint x="2410" y="600" mark="32" />
            </Array>
          </mxGeometry>
        </mxCell>
        <mxCell id="1451" value="" style="edgeStyle=orthogonalEdgeStyle;endArrow=none;strokeWidth=3;strokeColor=#64BBE2;html=1;noEdgeStyle=1;" parent="1" source="1353" target="1440" edge="1">
          <mxGeometry x="-24" y="196.5" width="100" height="100" as="geometry">
            <mxPoint x="-24" y="296.5" as="sourcePoint" />
            <mxPoint x="76" y="196.5" as="targetPoint" />
            <Array as="points">
              <mxPoint x="2695" y="440" mark="1" />
              <mxPoint x="2695" y="460" mark="4097" />
              <mxPoint x="2695" y="595" mark="8193" />
              <mxPoint x="2595" y="595" mark="8256" />
              <mxPoint x="2595" y="600" mark="64" />
            </Array>
          </mxGeometry>
        </mxCell>
        <mxCell id="1453" value="" style="edgeStyle=orthogonalEdgeStyle;endArrow=none;strokeWidth=3;strokeColor=#64BBE2;html=1;noEdgeStyle=1;" parent="1" source="1353" target="1441" edge="1">
          <mxGeometry x="-24" y="196.5" width="100" height="100" as="geometry">
            <mxPoint x="-24" y="296.5" as="sourcePoint" />
            <mxPoint x="76" y="196.5" as="targetPoint" />
            <Array as="points">
              <mxPoint x="2695" y="440" mark="1" />
              <mxPoint x="2695" y="460" mark="4097" />
              <mxPoint x="2695" y="595" mark="8193" />
              <mxPoint x="2795" y="595" mark="8320" />
              <mxPoint x="2795" y="600" mark="128" />
            </Array>
          </mxGeometry>
        </mxCell>
        <mxCell id="1465" value="" style="edgeStyle=orthogonalEdgeStyle;endArrow=none;strokeWidth=3;strokeColor=#A29DC5;html=1;noEdgeStyle=1;" parent="1" source="1354" target="1458" edge="1">
          <mxGeometry x="251" y="-103.5" width="100" height="100" as="geometry">
            <mxPoint x="251" y="-3.5" as="sourcePoint" />
            <mxPoint x="351" y="-103.5" as="targetPoint" />
            <Array as="points">
              <mxPoint x="385" y="990" mark="1" />
              <mxPoint x="385" y="1010" mark="129" />
              <mxPoint x="285" y="1010" mark="132" />
              <mxPoint x="285" y="1015" mark="4" />
            </Array>
          </mxGeometry>
        </mxCell>
        <mxCell id="1467" value="" style="edgeStyle=orthogonalEdgeStyle;endArrow=none;strokeWidth=3;strokeColor=#A29DC5;html=1;noEdgeStyle=1;" parent="1" source="1354" target="1457" edge="1">
          <mxGeometry x="251" y="-103.5" width="100" height="100" as="geometry">
            <mxPoint x="251" y="-3.5" as="sourcePoint" />
            <mxPoint x="351" y="-103.5" as="targetPoint" />
            <Array as="points">
              <mxPoint x="385" y="990" mark="1" />
              <mxPoint x="385" y="1010" mark="129" />
              <mxPoint x="100" y="1010" mark="130" />
              <mxPoint x="100" y="1015" mark="2" />
            </Array>
          </mxGeometry>
        </mxCell>
        <mxCell id="1503" value="" style="edgeStyle=orthogonalEdgeStyle;endArrow=none;strokeWidth=3;strokeColor=#F08E81;html=1;noEdgeStyle=1;" parent="1" source="1356" target="1490" edge="1">
          <mxGeometry x="188.5" y="51.5" width="100" height="100" as="geometry">
            <mxPoint x="188.5" y="151.5" as="sourcePoint" />
            <mxPoint x="288.5" y="51.5" as="targetPoint" />
            <Array as="points">
              <mxPoint x="1925" y="990" mark="1" />
              <mxPoint x="1925" y="1010" mark="8193" />
              <mxPoint x="1640" y="1010" mark="8194" />
              <mxPoint x="1640" y="1015" mark="2" />
            </Array>
          </mxGeometry>
        </mxCell>
        <mxCell id="1504" value="" style="edgeStyle=orthogonalEdgeStyle;endArrow=none;strokeWidth=3;strokeColor=#F08E81;html=1;noEdgeStyle=1;" parent="1" source="1356" target="1491" edge="1">
          <mxGeometry x="188.5" y="51.5" width="100" height="100" as="geometry">
            <mxPoint x="188.5" y="151.5" as="sourcePoint" />
            <mxPoint x="288.5" y="51.5" as="targetPoint" />
            <Array as="points">
              <mxPoint x="1925" y="990" mark="1" />
              <mxPoint x="1925" y="1010" mark="8193" />
              <mxPoint x="1825" y="1010" mark="8196" />
              <mxPoint x="1825" y="1015" mark="4" />
            </Array>
          </mxGeometry>
        </mxCell>
        <mxCell id="1505" value="" style="edgeStyle=orthogonalEdgeStyle;endArrow=none;strokeWidth=3;strokeColor=#F08E81;html=1;noEdgeStyle=1;" parent="1" source="1356" target="1492" edge="1">
          <mxGeometry x="188.5" y="51.5" width="100" height="100" as="geometry">
            <mxPoint x="188.5" y="151.5" as="sourcePoint" />
            <mxPoint x="288.5" y="51.5" as="targetPoint" />
            <Array as="points">
              <mxPoint x="1925" y="990" mark="1" />
              <mxPoint x="1925" y="1010" mark="8193" />
              <mxPoint x="2025" y="1010" mark="8200" />
              <mxPoint x="2025" y="1015" mark="8" />
            </Array>
          </mxGeometry>
        </mxCell>
        <mxCell id="1515" value="&lt;div&gt;Attendu des exams&lt;/div&gt;" style="ellipse;whiteSpace=wrap;html=1;shadow=0;fontFamily=Helvetica;fontSize=30;fontColor=#2F5B7C;align=center;strokeColor=#2F5B7C;strokeWidth=6;fillColor=#FFFFFF;fontStyle=1;gradientColor=none;" parent="1" vertex="1">
          <mxGeometry x="1405" y="25" width="270" height="270" as="geometry" />
        </mxCell>
        <mxCell id="1516" value="&lt;div&gt;E4&lt;/div&gt;&lt;div&gt;Support services info&lt;/div&gt;" style="ellipse;whiteSpace=wrap;html=1;shadow=0;fontFamily=Helvetica;fontSize=20;fontColor=#FFFFFF;align=center;strokeWidth=3;fillColor=#736ca8;strokeColor=none;" parent="1" vertex="1">
          <mxGeometry x="2635" y="870" width="120" height="120" as="geometry" />
        </mxCell>
        <mxCell id="1528" value="" style="edgeStyle=orthogonalEdgeStyle;endArrow=none;strokeWidth=3;strokeColor=#A29DC5;html=1;noEdgeStyle=1;" parent="1" source="1516" target="1517" edge="1">
          <mxGeometry x="-1498" y="-303.5" width="100" height="100" as="geometry">
            <mxPoint x="-1498" y="-203.5" as="sourcePoint" />
            <mxPoint x="-1398" y="-303.5" as="targetPoint" />
            <Array as="points">
              <mxPoint x="2695" y="990" mark="1" />
              <mxPoint x="2695" y="1010" mark="8193" />
              <mxPoint x="2410" y="1010" mark="8194" />
              <mxPoint x="2410" y="1015" mark="2" />
            </Array>
          </mxGeometry>
        </mxCell>
        <mxCell id="1530" value="" style="edgeStyle=orthogonalEdgeStyle;endArrow=none;strokeWidth=3;strokeColor=#A29DC5;html=1;noEdgeStyle=1;" parent="1" source="1516" target="1518" edge="1">
          <mxGeometry x="-1498" y="-303.5" width="100" height="100" as="geometry">
            <mxPoint x="-1498" y="-203.5" as="sourcePoint" />
            <mxPoint x="-1398" y="-303.5" as="targetPoint" />
            <Array as="points">
              <mxPoint x="2695" y="990" mark="1" />
              <mxPoint x="2695" y="1010" mark="8193" />
              <mxPoint x="2595" y="1010" mark="8196" />
              <mxPoint x="2595" y="1015" mark="4" />
            </Array>
          </mxGeometry>
        </mxCell>
        <mxCell id="1531" value="" style="edgeStyle=orthogonalEdgeStyle;endArrow=none;strokeWidth=3;strokeColor=#A29DC5;html=1;noEdgeStyle=1;" parent="1" source="1516" target="1519" edge="1">
          <mxGeometry x="-1498" y="-303.5" width="100" height="100" as="geometry">
            <mxPoint x="-1498" y="-203.5" as="sourcePoint" />
            <mxPoint x="-1398" y="-303.5" as="targetPoint" />
            <Array as="points">
              <mxPoint x="2695" y="990" mark="1" />
              <mxPoint x="2695" y="1010" mark="8193" />
              <mxPoint x="2795" y="1010" mark="8200" />
              <mxPoint x="2795" y="1015" mark="8" />
            </Array>
          </mxGeometry>
        </mxCell>
        <mxCell id="1532" value="" style="edgeStyle=orthogonalEdgeStyle;endArrow=none;strokeWidth=3;strokeColor=#A29DC5;html=1;noEdgeStyle=1;" parent="1" source="1516" target="1520" edge="1">
          <mxGeometry x="-1498" y="-303.5" width="100" height="100" as="geometry">
            <mxPoint x="-1498" y="-203.5" as="sourcePoint" />
            <mxPoint x="-1398" y="-303.5" as="targetPoint" />
            <Array as="points">
              <mxPoint x="2695" y="990" mark="1" />
              <mxPoint x="2695" y="1010" mark="8193" />
              <mxPoint x="2795" y="1010" mark="8200" />
              <mxPoint x="2980" y="1010" mark="8208" />
              <mxPoint x="2980" y="1015" mark="16" />
            </Array>
          </mxGeometry>
        </mxCell>
        <mxCell id="1533" value="" style="edgeStyle=orthogonalEdgeStyle;endArrow=none;strokeWidth=3;strokeColor=#A29DC5;html=1;noEdgeStyle=1;entryX=0.687;entryY=0.01;entryDx=0;entryDy=0;entryPerimeter=0;" parent="1" source="1516" target="1521" edge="1">
          <mxGeometry x="-1498" y="-303.5" width="100" height="100" as="geometry">
            <mxPoint x="-1498" y="-203.5" as="sourcePoint" />
            <mxPoint x="-1398" y="-303.5" as="targetPoint" />
            <Array as="points">
              <mxPoint x="2695" y="990" mark="1" />
              <mxPoint x="2695" y="1010" mark="8193" />
              <mxPoint x="2695" y="1145" mark="16385" />
            </Array>
          </mxGeometry>
        </mxCell>
        <mxCell id="1541" value="" style="edgeStyle=orthogonalEdgeStyle;endArrow=none;strokeWidth=3;strokeColor=#A29DC5;html=1;noEdgeStyle=1;" parent="1" source="1354" target="1459" edge="1">
          <mxGeometry x="-1174" y="-408.5" width="100" height="100" as="geometry">
            <mxPoint x="-1174" y="-308.5" as="sourcePoint" />
            <mxPoint x="-1074" y="-408.5" as="targetPoint" />
            <Array as="points">
              <mxPoint x="385" y="990" mark="1" />
              <mxPoint x="385" y="1010" mark="129" />
              <mxPoint x="485" y="1010" mark="136" />
              <mxPoint x="485" y="1015" mark="8" />
            </Array>
          </mxGeometry>
        </mxCell>
        <mxCell id="1357" value="&lt;div&gt;Analysé des &lt;br&gt;&lt;/div&gt;&lt;div&gt;situations écomique, &lt;br&gt;&lt;/div&gt;&lt;div&gt;juridique, manariales&lt;/div&gt;&lt;div&gt;auquel on peut &lt;br&gt;&lt;/div&gt;&lt;div&gt;etre confronté proffs&lt;br&gt;&lt;/div&gt;" style="rounded=1;fillColor=#f5af58;strokeColor=none;strokeWidth=3;shadow=0;html=1;fontColor=#FFFFFF;align=center;verticalAlign=middle;fontFamily=Lucida Console;" parent="1" vertex="1">
          <mxGeometry x="795" y="465" width="150" height="100" as="geometry" />
        </mxCell>
        <mxCell id="1358" value="&lt;div&gt;Proteger les données&lt;/div&gt;&lt;div&gt;personnels&lt;br&gt;&lt;/div&gt;" style="rounded=1;fillColor=#64BBE2;strokeColor=none;strokeWidth=3;shadow=0;html=1;fontColor=#FFFFFF;align=center;verticalAlign=middle;fontFamily=Lucida Console;" parent="1" vertex="1">
          <mxGeometry x="25" y="465" width="150" height="100" as="geometry" />
        </mxCell>
        <mxCell id="1367" value="&lt;div&gt;préserver l&#39;IN d&#39;une &lt;br&gt;&lt;/div&gt;&lt;div&gt;organisa°&lt;br&gt;&lt;/div&gt;" style="rounded=1;fillColor=#64BBE2;strokeColor=none;strokeWidth=3;shadow=0;html=1;fontColor=#FFFFFF;align=center;verticalAlign=middle;fontFamily=Lucida Console;" parent="1" vertex="1">
          <mxGeometry x="210" y="465" width="150" height="100" as="geometry" />
        </mxCell>
        <mxCell id="1368" value="&lt;div&gt;Sécurisations&lt;/div&gt;&lt;div&gt;équipement et usages&lt;/div&gt;&lt;div&gt;des users&lt;br&gt;&lt;/div&gt;" style="rounded=1;fillColor=#64BBE2;strokeColor=none;strokeWidth=3;shadow=0;html=1;fontColor=#FFFFFF;align=center;verticalAlign=middle;fontFamily=Lucida Console;" parent="1" vertex="1">
          <mxGeometry x="410" y="465" width="150" height="100" as="geometry" />
        </mxCell>
        <mxCell id="1369" value="&lt;div&gt;Sécurisé les données&lt;/div&gt;&lt;div&gt;face au Cyberattaques&lt;/div&gt;" style="rounded=1;fillColor=#64BBE2;strokeColor=none;strokeWidth=3;shadow=0;html=1;fontColor=#FFFFFF;align=center;verticalAlign=middle;fontFamily=Lucida Console;" parent="1" vertex="1">
          <mxGeometry x="595" y="465" width="150" height="100" as="geometry" />
        </mxCell>
        <mxCell id="1370" value="&lt;div&gt;Assurer la sécurité &lt;br&gt;&lt;/div&gt;&lt;div&gt;d&#39;une app et de son&lt;/div&gt;&lt;div&gt;dev&lt;/div&gt;" style="rounded=1;fillColor=#64BBE2;strokeColor=none;strokeWidth=3;shadow=0;html=1;fontColor=#FFFFFF;align=center;verticalAlign=middle;fontFamily=Lucida Console;" parent="1" vertex="1">
          <mxGeometry x="25" y="600" width="150" height="100" as="geometry" />
        </mxCell>
        <mxCell id="1388" value="&lt;div&gt;Exploiter une base&lt;/div&gt;&lt;div&gt;de docsaire, d&#39;eco,&lt;/div&gt;&lt;div&gt;juridique, manariales&lt;br&gt;&lt;/div&gt;" style="rounded=1;fillColor=#f5af58;strokeColor=none;strokeWidth=3;shadow=0;html=1;fontColor=#FFFFFF;align=center;verticalAlign=middle;fontFamily=Lucida Console;" parent="1" vertex="1">
          <mxGeometry x="980" y="465" width="150" height="100" as="geometry" />
        </mxCell>
        <mxCell id="1389" value="&lt;div&gt;Savoir proposes des&lt;/div&gt;&lt;div&gt;solutions argumenter&lt;/div&gt;&lt;div&gt;grace aux notions et&lt;/div&gt;&lt;div&gt;mathodo adapté&lt;/div&gt;&lt;div&gt;aux situa°&lt;br&gt;&lt;/div&gt;" style="rounded=1;fillColor=#f5af58;strokeColor=none;strokeWidth=3;shadow=0;html=1;fontColor=#FFFFFF;align=center;verticalAlign=middle;fontFamily=Lucida Console;" parent="1" vertex="1">
          <mxGeometry x="1180" y="465" width="150" height="100" as="geometry" />
        </mxCell>
        <mxCell id="1390" value="&lt;div&gt;Diagnostiquer une &lt;br&gt;&lt;/div&gt;&lt;div&gt;prise de desi°&lt;/div&gt;&lt;div&gt;stratégiques&lt;/div&gt;" style="rounded=1;fillColor=#f5af58;strokeColor=none;strokeWidth=3;shadow=0;html=1;fontColor=#FFFFFF;align=center;verticalAlign=middle;fontFamily=Lucida Console;" parent="1" vertex="1">
          <mxGeometry x="1365" y="465" width="150" height="100" as="geometry" />
        </mxCell>
        <mxCell id="1391" value="&lt;div&gt;Exposer ses analyses&lt;/div&gt;&lt;div&gt;et proposi° de &lt;br&gt;&lt;/div&gt;&lt;div&gt;manieres argu et&lt;/div&gt;&lt;div&gt;cohérente&lt;br&gt;&lt;/div&gt;" style="rounded=1;fillColor=#f5af58;strokeColor=none;strokeWidth=3;shadow=0;html=1;fontColor=#FFFFFF;align=center;verticalAlign=middle;fontFamily=Lucida Console;" parent="1" vertex="1">
          <mxGeometry x="795" y="600" width="150" height="100" as="geometry" />
        </mxCell>
        <mxCell id="1411" value="&lt;div&gt;[ÉCRIT]&lt;br&gt;&lt;/div&gt;&lt;div&gt;Appréhender et &lt;br&gt;&lt;/div&gt;&lt;div&gt;réaliser un message&lt;/div&gt;&lt;div&gt;écrit&lt;br&gt;&lt;/div&gt;" style="rounded=1;fillColor=#f08e81;strokeColor=none;strokeWidth=9;shadow=0;html=1;fontColor=#FFFFFF;align=center;verticalAlign=middle;fontFamily=Lucida Console;absoluteArcSize=0;noLabel=0;labelPadding=0;portConstraint=none;portConstraintRotation=0;snapToPoint=0;allowArrows=1;autosize=0;container=0;dropTarget=0;collapsible=0;recursiveResize=1;comic=0;" parent="1" vertex="1">
          <mxGeometry x="1565" y="465" width="150" height="100" as="geometry" />
        </mxCell>
        <mxCell id="1412" value="&lt;div&gt;&lt;div&gt;[ÉCRIT]&lt;br&gt;&lt;/div&gt;Respecter les&lt;/div&gt;&lt;div&gt;contraintes de la&lt;/div&gt;&lt;div&gt;langue écrite&lt;br&gt;&lt;/div&gt;" style="rounded=1;fillColor=#f08e81;strokeColor=none;strokeWidth=3;shadow=0;html=1;fontColor=#FFFFFF;align=center;verticalAlign=middle;fontFamily=Lucida Console;" parent="1" vertex="1">
          <mxGeometry x="1750" y="465" width="150" height="100" as="geometry" />
        </mxCell>
        <mxCell id="1413" value="&lt;div&gt;&lt;div&gt;[ÉCRIT]&lt;br&gt;&lt;/div&gt;Synthétiser les infos&lt;/div&gt;&lt;div&gt;&lt;br&gt;&lt;/div&gt;" style="rounded=1;fillColor=#f08e81;strokeColor=none;strokeWidth=3;shadow=0;html=1;fontColor=#FFFFFF;align=center;verticalAlign=middle;fontFamily=Lucida Console;" parent="1" vertex="1">
          <mxGeometry x="1950" y="465" width="150" height="100" as="geometry" />
        </mxCell>
        <mxCell id="1414" value="&lt;div&gt;[ÉCRIT]&lt;br&gt;&lt;/div&gt;Réponse argumenter" style="rounded=1;fillColor=#f08e81;strokeColor=none;strokeWidth=3;shadow=0;html=1;fontColor=#FFFFFF;align=center;verticalAlign=middle;fontFamily=Lucida Console;" parent="1" vertex="1">
          <mxGeometry x="2135" y="465" width="150" height="100" as="geometry" />
        </mxCell>
        <mxCell id="1415" value="&lt;div&gt;[ORAL]&lt;/div&gt;&lt;div&gt;adaptabilité &lt;br&gt;&lt;/div&gt;&lt;div&gt;maitrise du temps,&lt;/div&gt;&lt;div&gt;lieu&lt;br&gt;&lt;/div&gt;" style="rounded=1;fillColor=#f08e81;strokeColor=none;strokeWidth=3;shadow=0;html=1;fontColor=#FFFFFF;align=center;verticalAlign=middle;fontFamily=Lucida Console;" parent="1" vertex="1">
          <mxGeometry x="1565" y="600" width="150" height="100" as="geometry" />
        </mxCell>
        <mxCell id="1416" value="&lt;div&gt;&lt;div&gt;[ORAL]&lt;/div&gt;&lt;div&gt;Prise en compte de &lt;br&gt;&lt;/div&gt;&lt;div&gt;notre interlocuteur&lt;/div&gt;&lt;div&gt;(Attitudes et Questions)&lt;/div&gt;&lt;div&gt;&lt;br&gt;&lt;/div&gt;&lt;/div&gt;" style="rounded=1;fillColor=#f08e81;strokeColor=none;strokeWidth=3;shadow=0;html=1;fontColor=#FFFFFF;align=center;verticalAlign=middle;fontFamily=Lucida Console;" parent="1" vertex="1">
          <mxGeometry x="1750" y="600" width="150" height="100" as="geometry" />
        </mxCell>
        <mxCell id="1417" value="&lt;div&gt;[ORAL]&lt;/div&gt;&lt;div&gt;Organiser un message &lt;br&gt;&lt;/div&gt;&lt;div&gt;oral, sujet et &lt;br&gt;&lt;/div&gt;&lt;div&gt;structure&lt;/div&gt;" style="rounded=1;fillColor=#f08e81;strokeColor=none;strokeWidth=3;shadow=0;html=1;fontColor=#FFFFFF;align=center;verticalAlign=middle;fontFamily=Lucida Console;" parent="1" vertex="1">
          <mxGeometry x="1950" y="600" width="150" height="100" as="geometry" />
        </mxCell>
        <mxCell id="1435" value="&lt;div&gt;[ÉCRIT]&lt;/div&gt;&lt;div&gt;Compréhension doc&lt;/div&gt;&lt;div&gt;écrit (articles,&lt;/div&gt;&lt;div&gt;cours, livre)&lt;br&gt;&lt;/div&gt;" style="rounded=1;fillColor=#64BBE2;strokeColor=none;strokeWidth=3;shadow=0;html=1;fontColor=#FFFFFF;align=center;verticalAlign=middle;fontFamily=Lucida Console;" parent="1" vertex="1">
          <mxGeometry x="2335" y="465" width="150" height="100" as="geometry" />
        </mxCell>
        <mxCell id="1436" value="&lt;div&gt;[ÉCRIT]&lt;/div&gt;&lt;div&gt;savoir écrire en &lt;br&gt;&lt;/div&gt;&lt;div&gt;langue anglaise&lt;br&gt;&lt;/div&gt;" style="rounded=1;fillColor=#64BBE2;strokeColor=none;strokeWidth=3;shadow=0;html=1;fontColor=#FFFFFF;align=center;verticalAlign=middle;fontFamily=Lucida Console;" parent="1" vertex="1">
          <mxGeometry x="2520" y="465" width="150" height="100" as="geometry" />
        </mxCell>
        <mxCell id="1437" value="&lt;br&gt;&lt;div&gt;[ORAL]&lt;/div&gt;&lt;div&gt;Compréhension oral&lt;/div&gt;&lt;div&gt;(Journal TV, radio,&lt;/div&gt;&lt;div&gt;film...)&lt;br&gt;&lt;/div&gt;" style="rounded=1;fillColor=#64BBE2;strokeColor=none;strokeWidth=3;shadow=0;html=1;fontColor=#FFFFFF;align=center;verticalAlign=middle;fontFamily=Lucida Console;" parent="1" vertex="1">
          <mxGeometry x="2720" y="465" width="150" height="100" as="geometry" />
        </mxCell>
        <mxCell id="1438" value="&lt;div&gt;[ORAL]&lt;/div&gt;&lt;div&gt;Communiquer à l&#39;oral&lt;/div&gt;&lt;div&gt;&lt;br&gt;&lt;/div&gt;" style="rounded=1;fillColor=#64BBE2;strokeColor=none;strokeWidth=3;shadow=0;html=1;fontColor=#FFFFFF;align=center;verticalAlign=middle;fontFamily=Lucida Console;" parent="1" vertex="1">
          <mxGeometry x="2905" y="465" width="150" height="100" as="geometry" />
        </mxCell>
        <mxCell id="1439" value="&lt;div&gt;[OBJECTIF]&lt;/div&gt;&lt;div&gt;Maitriser les&lt;/div&gt;&lt;div&gt;differentes fomes&lt;/div&gt;&lt;div&gt;de discours&lt;br&gt;&lt;/div&gt;" style="rounded=1;fillColor=#64BBE2;strokeColor=none;strokeWidth=3;shadow=0;html=1;fontColor=#FFFFFF;align=center;verticalAlign=middle;fontFamily=Lucida Console;" parent="1" vertex="1">
          <mxGeometry x="2335" y="600" width="150" height="100" as="geometry" />
        </mxCell>
        <mxCell id="1440" value="&lt;div&gt;[OBJECTIF]&lt;/div&gt;&lt;div&gt;développer sa &lt;br&gt;&lt;/div&gt;&lt;div&gt;réflexion en &lt;br&gt;&lt;/div&gt;&lt;div&gt;Anglais&lt;br&gt;&lt;/div&gt;" style="rounded=1;fillColor=#64BBE2;strokeColor=none;strokeWidth=3;shadow=0;html=1;fontColor=#FFFFFF;align=center;verticalAlign=middle;fontFamily=Lucida Console;" parent="1" vertex="1">
          <mxGeometry x="2519" y="600" width="150" height="100" as="geometry" />
        </mxCell>
        <mxCell id="1441" value="&lt;div&gt;[OBJECTIF]&lt;/div&gt;&lt;div&gt;Developper une &lt;br&gt;&lt;/div&gt;&lt;div&gt;autonomie Anglaise&lt;/div&gt;" style="rounded=1;fillColor=#64BBE2;strokeColor=none;strokeWidth=3;shadow=0;html=1;fontColor=#FFFFFF;align=center;verticalAlign=middle;fontFamily=Lucida Console;" parent="1" vertex="1">
          <mxGeometry x="2720" y="600" width="150" height="100" as="geometry" />
        </mxCell>
        <mxCell id="1457" value="&lt;div&gt;Comprendre et&lt;/div&gt;&lt;div&gt;résoudre des&lt;/div&gt;&lt;div&gt;problemes maths info&lt;br&gt;&lt;/div&gt;" style="rounded=1;fillColor=#a29dc5;strokeColor=none;strokeWidth=3;shadow=0;html=1;fontColor=#FFFFFF;align=center;verticalAlign=middle;fontFamily=Lucida Console;" parent="1" vertex="1">
          <mxGeometry x="25" y="1015" width="150" height="100" as="geometry" />
        </mxCell>
        <mxCell id="1458" value="&lt;div&gt;manipulation des&lt;/div&gt;&lt;div&gt;objets maths utilisé&lt;/div&gt;&lt;div&gt;en info&lt;br&gt;&lt;/div&gt;" style="rounded=1;fillColor=#a29dc5;strokeColor=none;strokeWidth=3;shadow=0;html=1;fontColor=#FFFFFF;align=center;verticalAlign=middle;fontFamily=Lucida Console;" parent="1" vertex="1">
          <mxGeometry x="210" y="1015" width="150" height="100" as="geometry" />
        </mxCell>
        <mxCell id="1459" value="&lt;div&gt;Résoudre des&lt;/div&gt;&lt;div&gt;problèmes grace à &lt;br&gt;&lt;/div&gt;&lt;div&gt;des algorithmes&lt;br&gt;&lt;/div&gt;" style="rounded=1;fillColor=#a29dc5;strokeColor=none;strokeWidth=3;shadow=0;html=1;fontColor=#FFFFFF;align=center;verticalAlign=middle;fontFamily=Lucida Console;" parent="1" vertex="1">
          <mxGeometry x="410" y="1015" width="150" height="100" as="geometry" />
        </mxCell>
        <mxCell id="1490" value="&lt;div&gt;Conception et dev&lt;/div&gt;&lt;div&gt;d&#39;application&lt;br&gt;&lt;/div&gt;" style="rounded=1;fillColor=#f08e81;strokeColor=none;strokeWidth=3;shadow=0;html=1;fontColor=#FFFFFF;align=center;verticalAlign=middle;fontFamily=Lucida Console;" parent="1" vertex="1">
          <mxGeometry x="1565" y="1015" width="150" height="100" as="geometry" />
        </mxCell>
        <mxCell id="1491" value="&lt;div&gt;assurer la &lt;br&gt;&lt;/div&gt;&lt;div&gt;maintenance et les&lt;/div&gt;&lt;div&gt;MAj d&#39;une appli&lt;br&gt;&lt;/div&gt;" style="rounded=1;fillColor=#f08e81;strokeColor=none;strokeWidth=3;shadow=0;html=1;fontColor=#FFFFFF;align=center;verticalAlign=middle;fontFamily=Lucida Console;" parent="1" vertex="1">
          <mxGeometry x="1750" y="1015" width="150" height="100" as="geometry" />
        </mxCell>
        <mxCell id="1492" value="gérer les données" style="rounded=1;fillColor=#f08e81;strokeColor=none;strokeWidth=3;shadow=0;html=1;fontColor=#FFFFFF;align=center;verticalAlign=middle;fontFamily=Lucida Console;" parent="1" vertex="1">
          <mxGeometry x="1950" y="1015" width="150" height="100" as="geometry" />
        </mxCell>
        <mxCell id="1499" value="[EXAM écrit]&lt;br&gt;Analyse d&#39;un dossier&lt;br&gt;pour répondre au besoin de la&lt;br&gt;situation" style="rounded=1;fillColor=#f08e81;strokeColor=none;strokeWidth=3;shadow=0;html=1;fontColor=#FFFFFF;align=center;verticalAlign=middle;fontFamily=Lucida Console;" parent="1" vertex="1">
          <mxGeometry x="1750" y="1180" width="150" height="100" as="geometry" />
        </mxCell>
        <mxCell id="1500" value="[EXAM oral]&lt;br&gt;1h de préparation pour réal la&lt;br&gt;soluce puis 20 min entretien" style="rounded=1;fillColor=#f08e81;strokeColor=none;strokeWidth=3;shadow=0;html=1;fontColor=#FFFFFF;align=center;verticalAlign=middle;fontFamily=Lucida Console;" parent="1" vertex="1">
          <mxGeometry x="1950" y="1180" width="150" height="100" as="geometry" />
        </mxCell>
        <mxCell id="1514" style="edgeStyle=orthogonalEdgeStyle;rounded=0;html=1;exitX=0.75;exitY=0;entryX=0.75;entryY=0;startArrow=none;startFill=0;endArrow=block;endFill=1;jettySize=auto;orthogonalLoop=1;strokeColor=#12aab5;strokeWidth=6;fontSize=20;fontColor=#2F5B7C;noEdgeStyle=1;align=center;verticalAlign=middle;fontFamily=Lucida Console;" parent="1" source="1414" target="1414" edge="1">
          <mxGeometry relative="1" as="geometry" />
        </mxCell>
        <mxCell id="1517" value="Gerer un park info" style="rounded=1;fillColor=#a29dc5;strokeColor=none;strokeWidth=3;shadow=0;html=1;fontColor=#FFFFFF;align=center;verticalAlign=middle;fontFamily=Lucida Console;" parent="1" vertex="1">
          <mxGeometry x="2335" y="1015" width="150" height="100" as="geometry" />
        </mxCell>
        <mxCell id="1518" value="&lt;div&gt;répondre au incidant,&lt;/div&gt;&lt;div&gt;demande d&#39;evolu° et &lt;br&gt;&lt;/div&gt;&lt;div&gt;d&#39;assistances&lt;/div&gt;" style="rounded=1;fillColor=#a29dc5;strokeColor=none;strokeWidth=3;shadow=0;html=1;fontColor=#FFFFFF;align=center;verticalAlign=middle;fontFamily=Lucida Console;" parent="1" vertex="1">
          <mxGeometry x="2520" y="1015" width="150" height="100" as="geometry" />
        </mxCell>
        <mxCell id="1519" value="&lt;div&gt;Travailler en mde&lt;/div&gt;&lt;div&gt;projet&lt;br&gt;&lt;/div&gt;" style="rounded=1;fillColor=#a29dc5;strokeColor=none;strokeWidth=3;shadow=0;html=1;fontColor=#FFFFFF;align=center;verticalAlign=middle;fontFamily=Lucida Console;" parent="1" vertex="1">
          <mxGeometry x="2720" y="1015" width="150" height="100" as="geometry" />
        </mxCell>
        <mxCell id="1520" value="&lt;div&gt;mettre à disposition &lt;br&gt;&lt;/div&gt;&lt;div&gt;un service info&lt;br&gt;&lt;/div&gt;" style="rounded=1;fillColor=#a29dc5;strokeColor=none;strokeWidth=3;shadow=0;html=1;fontColor=#FFFFFF;align=center;verticalAlign=middle;fontFamily=Lucida Console;" parent="1" vertex="1">
          <mxGeometry x="2905" y="1015" width="150" height="100" as="geometry" />
        </mxCell>
        <mxCell id="1521" value="organiser son dev pro" style="rounded=1;fillColor=#a29dc5;strokeColor=none;strokeWidth=3;shadow=0;html=1;fontColor=#FFFFFF;align=center;verticalAlign=middle;fontFamily=Lucida Console;" parent="1" vertex="1">
          <mxGeometry x="2590" y="1150" width="150" height="100" as="geometry" />
        </mxCell>
        <mxCell id="1526" value="[EXAM Oral]&lt;br&gt;Sur remise d&#39;un dossier aux&lt;br&gt;examinateurs&amp;nbsp;&lt;br&gt;réponses à des QDS&lt;br&gt;&lt;br&gt;Pt 1 : 10min prés° parcours pro&lt;br&gt;PT 2 : 30min echanges jury sur dossier" style="rounded=1;fillColor=#a29dc5;strokeColor=none;strokeWidth=3;shadow=0;html=1;fontColor=#FFFFFF;align=center;verticalAlign=middle;fontFamily=Lucida Console;" parent="1" vertex="1">
          <mxGeometry x="2570" y="1285" width="210" height="175" as="geometry" />
        </mxCell>
        <mxCell id="1542" style="edgeStyle=none;rounded=0;html=1;exitX=0.5;exitY=1;endArrow=none;endFill=0;jettySize=auto;orthogonalLoop=1;strokeColor=#736CA8;strokeWidth=2;fillColor=#64bbe2;fontSize=20;fontColor=#23445D;noEdgeStyle=1;align=center;verticalAlign=middle;fontFamily=Lucida Console;" parent="1" edge="1">
          <mxGeometry relative="1" as="geometry">
            <mxPoint x="2980" y="1385" as="sourcePoint" />
            <mxPoint x="2980" y="1385" as="targetPoint" />
          </mxGeometry>
        </mxCell>
        <mxCell id="ftqSrM_YYSdM8JI-R3oG-1554" value="Organisation" style="rounded=1;fillColor=#a29dc5;strokeColor=none;strokeWidth=3;shadow=0;html=1;fontColor=#FFFFFF;align=center;verticalAlign=middle;fontFamily=Lucida Console;" parent="1" vertex="1">
          <mxGeometry x="1710" y="25" width="150" height="100" as="geometry" />
        </mxCell>
        <mxCell id="ftqSrM_YYSdM8JI-R3oG-1555" value="Cactus" style="rounded=1;fillColor=#f08e81;strokeColor=none;strokeWidth=3;shadow=0;html=1;fontColor=#FFFFFF;align=center;verticalAlign=middle;fontFamily=Lucida Console;" parent="1" vertex="1">
          <mxGeometry x="1895" y="25" width="150" height="100" as="geometry" />
        </mxCell>
        <mxCell id="ftqSrM_YYSdM8JI-R3oG-1556" value="Poppy" style="rounded=1;fillColor=#f08e81;strokeColor=none;strokeWidth=3;shadow=0;html=1;fontColor=#FFFFFF;align=center;verticalAlign=middle;fontFamily=Lucida Console;" parent="1" vertex="1">
          <mxGeometry x="2080" y="25" width="150" height="100" as="geometry" />
        </mxCell>
        <mxCell id="ftqSrM_YYSdM8JI-R3oG-1558" value="&lt;div&gt;B1 actuel&lt;/div&gt;&lt;div&gt;B2/C1 visée&lt;br&gt;&lt;/div&gt;" style="rhombus;whiteSpace=wrap;html=1;rounded=1;shadow=0;comic=0;strokeWidth=1;fontFamily=Lucida Console;fontColor=#FFFFFF;fillColor=#1699D3;dashed=1;" parent="1" vertex="1">
          <mxGeometry x="2823" y="330" width="100" height="100" as="geometry" />
        </mxCell>
        <mxCell id="H5KNrPsj4nIKbCWCYMqj-1542" value="&lt;div&gt;Apprendre le Python&lt;/div&gt;" style="rounded=1;fillColor=#a29dc5;strokeColor=none;strokeWidth=3;shadow=0;html=1;fontColor=#FFFFFF;align=center;verticalAlign=middle;fontFamily=Lucida Console;arcSize=9;" vertex="1" parent="1">
          <mxGeometry x="580" y="1015" width="150" height="100" as="geometry" />
        </mxCell>
        <mxCell id="H5KNrPsj4nIKbCWCYMqj-1546" value="" style="edgeStyle=orthogonalEdgeStyle;endArrow=none;strokeWidth=3;strokeColor=#A29DC5;html=1;noEdgeStyle=1;" edge="1" parent="1">
          <mxGeometry x="-1019" y="-408.5" width="100" height="100" as="geometry">
            <mxPoint x="480" y="1010" as="sourcePoint" />
            <mxPoint x="640" y="1015" as="targetPoint" />
            <Array as="points">
              <mxPoint x="480" y="1010" />
              <mxPoint x="640" y="1010" mark="136" />
              <mxPoint x="640" y="1015" mark="8" />
            </Array>
          </mxGeometry>
        </mxCell>
        <mxCell id="H5KNrPsj4nIKbCWCYMqj-1547" value="[EXAM]&lt;br&gt;Pt 1 : Synthèse&lt;br&gt;Pt2 : Disert" style="rounded=1;fillColor=#f08e81;strokeColor=none;strokeWidth=3;shadow=0;html=1;fontColor=#FFFFFF;align=center;verticalAlign=middle;fontFamily=Lucida Console;" vertex="1" parent="1">
          <mxGeometry x="1850" y="710" width="150" height="100" as="geometry" />
        </mxCell>
        <mxCell id="H5KNrPsj4nIKbCWCYMqj-1548" value="&lt;div&gt;[EXAM oral]&lt;/div&gt;&lt;div&gt;Prépa de 20 min&lt;/div&gt;&lt;div&gt;== Dossier pro en anglais&lt;/div&gt;&lt;div&gt;Oral : 5 min prés&lt;/div&gt;&lt;div&gt;15 min QDS&lt;/div&gt;&lt;div&gt;&lt;br&gt;&lt;/div&gt;" style="rounded=1;fillColor=#64BBE2;strokeColor=none;strokeWidth=3;shadow=0;html=1;fontColor=#FFFFFF;align=center;verticalAlign=middle;fontFamily=Lucida Console;" vertex="1" parent="1">
          <mxGeometry x="2710" y="710" width="150" height="100" as="geometry" />
        </mxCell>
        <mxCell id="H5KNrPsj4nIKbCWCYMqj-1549" value="&lt;div&gt;[EXAM écrit]&lt;/div&gt;&lt;div&gt;Pt 1 : Compréhension écrite&lt;/div&gt;&lt;div&gt;Pt 2 : Expression écrite&lt;/div&gt;" style="rounded=1;fillColor=#64BBE2;strokeColor=none;strokeWidth=3;shadow=0;html=1;fontColor=#FFFFFF;align=center;verticalAlign=middle;fontFamily=Lucida Console;" vertex="1" parent="1">
          <mxGeometry x="2540" y="710" width="150" height="100" as="geometry" />
        </mxCell>
        <mxCell id="H5KNrPsj4nIKbCWCYMqj-1550" value="&lt;div&gt;[EXAM]&lt;/div&gt;&lt;div&gt;1 U 2 exo&lt;/div&gt;&lt;div&gt;résolution &amp;amp; créa algo&amp;nbsp;&lt;/div&gt;&lt;div&gt;à partir d&#39;une consigne&lt;/div&gt;" style="rounded=1;fillColor=#a29dc5;strokeColor=none;strokeWidth=3;shadow=0;html=1;fontColor=#FFFFFF;align=center;verticalAlign=middle;fontFamily=Lucida Console;" vertex="1" parent="1">
          <mxGeometry x="250" y="1140.5" width="150" height="100" as="geometry" />
        </mxCell>
        <mxCell id="H5KNrPsj4nIKbCWCYMqj-1551" value="&lt;div&gt;[EXAM]&lt;/div&gt;&lt;div&gt;Étude de cas sur un dossier&lt;/div&gt;&lt;div&gt;Réponse construite et argumenté&lt;/div&gt;" style="rounded=1;fillColor=#f5af58;strokeColor=none;strokeWidth=3;shadow=0;html=1;fontColor=#FFFFFF;align=center;verticalAlign=middle;fontFamily=Lucida Console;" vertex="1" parent="1">
          <mxGeometry x="1070" y="620" width="170" height="100" as="geometry" />
        </mxCell>
        <mxCell id="H5KNrPsj4nIKbCWCYMqj-1552" value="&lt;div&gt;[EXAM écrit]&lt;/div&gt;&lt;div&gt;Étude de cas&lt;/div&gt;" style="rounded=1;fillColor=#64BBE2;strokeColor=none;strokeWidth=3;shadow=0;html=1;fontColor=#FFFFFF;align=center;verticalAlign=middle;fontFamily=Lucida Console;" vertex="1" parent="1">
          <mxGeometry x="350" y="650" width="150" height="100" as="geometry" />
        </mxCell>
      </root>
    </mxGraphModel>
  </diagram>
</mxfile>
